<?xml version="1.0" encoding="iso-8859-1"?>
<!-- Uploaded to: SVG Repo, www.svgrepo.com, Generator: SVG Repo Mixer Tools -->
<!DOCTYPE svg PUBLIC "-//W3C//DTD SVG 1.1//EN" "http://www.w3.org/Graphics/SVG/1.1/DTD/svg11.dtd">
<svg fill="#000000" version="1.1" id="Capa_1" xmlns="http://www.w3.org/2000/svg" xmlns:xlink="http://www.w3.org/1999/xlink" 
	 width="800px" height="800px" viewBox="0 0 163.712 163.712"
	 xml:space="preserve">
<g>
	<g>
		<path d="M81.856,116.156c6.235,0,11.295,5.061,11.295,11.296s-5.061,11.289-11.295,11.289c-6.235,0-11.292-5.054-11.292-11.289
			S75.621,116.156,81.856,116.156z"/>
		<path d="M158.696,150.037H5.017c-2.773,0-5.017,2.234-5.017,5.023c0,2.771,2.244,5.018,5.017,5.018h153.679
			c2.764,0,5.017-2.241,5.017-5.018C163.712,152.271,161.472,150.037,158.696,150.037z"/>
		<path d="M55.911,141.962l27.118-40.359l24.651,40.17c0.944,1.535,2.606,2.394,4.287,2.394c0.901,0,1.809-0.231,2.618-0.743
			c2.362-1.437,3.105-4.536,1.656-6.893l-28.74-46.838c-0.152-0.25-0.421-0.384-0.618-0.597v-34.62l18.009-43.902
			c1.065-2.549-0.159-5.48-2.729-6.54c-2.545-1.047-5.492,0.167-6.546,2.737L81.232,41.795L68.159,6.908
			c-0.968-2.594-3.885-3.946-6.46-2.938c-2.6,0.968-3.909,3.861-2.944,6.46l17.564,46.847c0.106,0.28,0.368,0.417,0.518,0.667
			v34.361c0,0.134,0.07,0.243,0.082,0.39l-29.337,43.641c-1.547,2.302-0.935,5.42,1.367,6.967
			C51.246,144.867,54.37,144.246,55.911,141.962z"/>
	</g>
</g>
</svg>